<svg width="658" height="133" viewBox="0 0 658 133" fill="none" xmlns="http://www.w3.org/2000/svg">
<rect width="658" height="133" fill="#E5E5E5"/>
<rect width="658" height="132.983" fill="white"/>
<path fill-rule="evenodd" clip-rule="evenodd" d="M81.4265 124.298C81.4265 124.838 82.0465 124.841 82.1585 124.298C82.9825 120.3 84.2345 117.636 86.1915 115.048L81.7905 115.05C81.694 115.051 81.6016 115.089 81.5334 115.157C81.4652 115.226 81.4268 115.318 81.4265 115.414V124.298ZM113.747 68.8125C113.566 68.2275 113.06 68.1895 113.065 68.8015C113.115 74.5805 111.453 79.5465 100.905 90.0955L92.5605 98.4315C88.7635 102.229 85.3495 105.697 83.3305 109.162H91.5705L92.5455 108.187L104.516 96.2045C114.485 86.2345 115.875 75.6905 113.746 68.8125H113.747ZM102.56 104.062L92.5595 114.069C86.5085 120.122 81.4265 125.336 81.4265 131.038L81.4325 132.628C81.4325 133.058 81.9685 133.126 82.1325 132.675C84.0025 127.569 90.2455 122.12 101.698 124.052C101.698 124.052 151.588 132.672 152.008 132.71C152.495 132.753 152.735 132.272 152.421 131.898C152.231 131.674 129.202 108.645 129.202 108.645L102.56 104.062V104.062ZM66.4665 115.049C66.4187 115.049 66.3714 115.039 66.3272 115.021C66.283 115.002 66.2429 114.976 66.2091 114.942C66.1753 114.908 66.1485 114.868 66.1302 114.824C66.1119 114.78 66.1025 114.732 66.1025 114.685V109.522C66.1025 109.321 66.2655 109.159 66.4665 109.159L75.1985 109.16C75.2949 109.16 75.3873 109.122 75.4555 109.054C75.5238 108.986 75.5622 108.894 75.5625 108.798C75.5395 104.16 72.0445 101.008 58.0395 103.447L27.7995 108.645C27.7995 108.645 4.76751 131.674 4.57851 131.898C4.26451 132.272 4.50551 132.752 4.99251 132.708C5.41251 132.672 55.3025 124.052 55.3025 124.052C66.7555 122.12 72.9985 127.569 74.8665 132.675C75.0315 133.125 75.5685 133.059 75.5685 132.628V115.412C75.5685 115.316 75.5303 115.224 75.4622 115.155C75.3942 115.087 75.3019 115.049 75.2055 115.049H66.4655H66.4665ZM52.5265 42.8965C42.5585 52.8655 41.1685 63.4105 43.2965 70.2885C43.4765 70.8735 43.9835 70.9115 43.9785 70.2985C43.9285 64.5205 45.5915 59.5535 56.1385 49.0055L78.8785 26.2725C84.9315 20.2195 90.0135 15.0045 90.0135 9.3015V0.4065C90.0135 -0.1345 89.3935 -0.1365 89.2815 0.4065C87.7855 7.6655 84.8815 10.5295 78.8945 16.5165L52.5275 42.8975L52.5265 42.8965ZM90.0355 24.9235V15.9675C90.0355 15.4265 89.4155 15.4245 89.3035 15.9675C87.8075 23.2275 84.9115 26.1365 78.9235 32.1245L55.0405 55.9875C43.4505 67.5775 41.4445 78.7955 47.3395 86.0035C47.7325 86.4835 48.1555 86.1955 47.8995 85.6155C44.0015 76.7975 53.3475 67.4485 57.7975 62.9985L78.9015 41.8935C84.9535 35.8415 90.0355 30.6265 90.0355 24.9235V24.9235ZM55.6955 70.9675C44.1045 82.5595 49.4345 93.7545 56.1955 96.8355C56.7885 97.1055 57.0245 96.6245 56.5705 96.2315C51.1495 91.5355 52.7955 83.6345 59.6135 76.8175L78.8775 57.5525C84.9295 51.5005 90.0105 46.2855 90.0105 40.5825V31.6875C90.0105 31.1465 89.3905 31.1445 89.2795 31.6875C87.7835 38.9465 84.8855 41.7975 78.8985 47.7865L55.6955 70.9665V70.9675ZM81.4055 99.7805V108.735C81.4055 109.275 82.0255 109.278 82.1355 108.735C83.6335 101.475 86.5295 98.5675 92.5155 92.5795L102.004 83.1135C113.594 71.5235 115.599 60.3055 109.704 53.0975C109.311 52.6175 108.888 52.9045 109.144 53.4845C113.042 62.3025 103.697 71.6525 99.2465 76.1025L92.5395 82.8095C86.4865 88.8625 81.4055 94.0775 81.4055 99.7795V99.7805ZM92.5425 76.9175C86.5545 82.9055 83.6565 85.7575 82.1615 93.0165C82.0495 93.5595 81.4295 93.5565 81.4295 93.0165V84.1215C81.4295 78.4185 86.5095 73.2035 92.5635 67.1515L97.4305 62.2835C104.249 55.4655 105.895 47.5655 100.473 42.8685C100.02 42.4765 100.256 41.9945 100.849 42.2655C107.609 45.3455 112.939 56.5415 101.348 68.1325L92.5425 76.9175V76.9175ZM148.745 115.712C149.27 115.712 149.583 115.419 149.583 114.994C149.583 114.52 149.321 114.317 148.734 114.317H148.24V115.712H148.745V115.712ZM147.473 113.671H148.766C149.866 113.671 150.361 114.106 150.361 114.975C150.361 115.61 149.976 115.964 149.572 116.126L150.745 118.086H149.876L148.865 116.338H148.24V118.086H147.473V113.671V113.671ZM151.988 115.873C151.988 114.126 150.683 112.701 148.855 112.701C147.027 112.701 145.714 114.025 145.714 115.873C145.714 117.621 147.028 119.045 148.855 119.045C150.584 119.045 151.988 117.722 151.988 115.873ZM145.148 115.873C145.148 113.722 146.704 112.166 148.855 112.166C150.905 112.166 152.562 113.722 152.562 115.873C152.562 118.025 151.007 119.58 148.855 119.58C146.704 119.58 145.148 118.025 145.148 115.873H145.148Z" fill="#2E6DE7"/>
<path d="M195.589 47.7788V53.4917H176.668V47.7788H195.589ZM179.061 17.9448V53.4917H171.737V17.9448H179.061ZM193.123 32.4223V37.9887H176.668V32.4223H193.123ZM195.565 17.9448V23.6821H176.668V17.9448H195.565ZM206.453 32.5444V53.4917H199.398V27.0757H206.014L206.453 32.5444ZM205.477 39.3559H203.524C203.524 37.5167 203.743 35.824 204.183 34.2778C204.639 32.7153 205.298 31.3644 206.16 30.2251C207.039 29.0695 208.122 28.1743 209.407 27.5395C210.693 26.9048 212.183 26.5874 213.875 26.5874C215.047 26.5874 216.121 26.7664 217.098 27.1245C218.074 27.4663 218.913 28.0115 219.613 28.7602C220.329 29.4926 220.882 30.4529 221.273 31.6411C221.663 32.813 221.859 34.2208 221.859 35.8647V53.4917H214.827V36.646C214.827 35.4415 214.665 34.5138 214.339 33.8628C214.014 33.2117 213.55 32.756 212.947 32.4956C212.362 32.2352 211.654 32.1049 210.823 32.1049C209.912 32.1049 209.114 32.2921 208.431 32.6665C207.764 33.0408 207.21 33.5617 206.771 34.229C206.331 34.88 206.006 35.645 205.794 36.5239C205.583 37.4028 205.477 38.3468 205.477 39.3559ZM221.199 38.5503L218.685 38.8676C218.685 37.1424 218.896 35.5392 219.32 34.0581C219.759 32.577 220.402 31.2749 221.248 30.1518C222.111 29.0288 223.177 28.158 224.447 27.5395C225.716 26.9048 227.181 26.5874 228.841 26.5874C230.111 26.5874 231.266 26.7745 232.308 27.1489C233.349 27.507 234.237 28.0848 234.969 28.8823C235.718 29.6635 236.287 30.6889 236.678 31.9585C237.085 33.228 237.288 34.7824 237.288 36.6216V53.4917H230.233V36.6216C230.233 35.4008 230.07 34.4731 229.744 33.8383C229.435 33.1873 228.979 32.7397 228.377 32.4956C227.791 32.2352 227.091 32.1049 226.278 32.1049C225.431 32.1049 224.691 32.2758 224.056 32.6176C223.421 32.9432 222.892 33.3989 222.469 33.9848C222.046 34.5708 221.728 35.2544 221.517 36.0356C221.305 36.8006 221.199 37.6388 221.199 38.5503ZM249.764 32.5444V53.4917H242.708V27.0757H249.324L249.764 32.5444ZM248.787 39.3559H246.834C246.834 37.5167 247.054 35.824 247.493 34.2778C247.949 32.7153 248.608 31.3644 249.471 30.2251C250.35 29.0695 251.432 28.1743 252.718 27.5395C254.004 26.9048 255.493 26.5874 257.186 26.5874C258.358 26.5874 259.432 26.7664 260.408 27.1245C261.385 27.4663 262.223 28.0115 262.923 28.7602C263.639 29.4926 264.193 30.4529 264.583 31.6411C264.974 32.813 265.169 34.2208 265.169 35.8647V53.4917H258.138V36.646C258.138 35.4415 257.975 34.5138 257.65 33.8628C257.324 33.2117 256.86 32.756 256.258 32.4956C255.672 32.2352 254.964 32.1049 254.134 32.1049C253.223 32.1049 252.425 32.2921 251.741 32.6665C251.074 33.0408 250.521 33.5617 250.081 34.229C249.642 34.88 249.316 35.645 249.105 36.5239C248.893 37.4028 248.787 38.3468 248.787 39.3559ZM264.51 38.5503L261.995 38.8676C261.995 37.1424 262.207 35.5392 262.63 34.0581C263.07 32.577 263.712 31.2749 264.559 30.1518C265.421 29.0288 266.488 28.158 267.757 27.5395C269.027 26.9048 270.491 26.5874 272.152 26.5874C273.421 26.5874 274.577 26.7745 275.618 27.1489C276.66 27.507 277.547 28.0848 278.28 28.8823C279.028 29.6635 279.598 30.6889 279.988 31.9585C280.395 33.228 280.599 34.7824 280.599 36.6216V53.4917H273.543V36.6216C273.543 35.4008 273.38 34.4731 273.055 33.8383C272.746 33.1873 272.29 32.7397 271.688 32.4956C271.102 32.2352 270.402 32.1049 269.588 32.1049C268.742 32.1049 268.001 32.2758 267.366 32.6176C266.732 32.9432 266.203 33.3989 265.78 33.9848C265.356 34.5708 265.039 35.2544 264.827 36.0356C264.616 36.8006 264.51 37.6388 264.51 38.5503ZM300.301 47.5346V35.7671C300.301 34.9207 300.163 34.1964 299.886 33.5942C299.609 32.9757 299.178 32.4956 298.592 32.1538C298.022 31.812 297.282 31.6411 296.37 31.6411C295.589 31.6411 294.914 31.7794 294.344 32.0561C293.774 32.3165 293.335 32.699 293.026 33.2036C292.716 33.6919 292.562 34.2697 292.562 34.937H285.53C285.53 33.8139 285.791 32.7479 286.312 31.7387C286.833 30.7296 287.589 29.8426 288.582 29.0776C289.575 28.2964 290.755 27.686 292.122 27.2466C293.506 26.8071 295.052 26.5874 296.761 26.5874C298.812 26.5874 300.635 26.9292 302.23 27.6128C303.825 28.2964 305.078 29.3217 305.989 30.6889C306.917 32.0561 307.381 33.7651 307.381 35.8159V47.1196C307.381 48.5682 307.471 49.7563 307.65 50.6841C307.829 51.5955 308.089 52.393 308.431 53.0766V53.4917H301.326C300.985 52.7755 300.724 51.8803 300.545 50.8061C300.382 49.7156 300.301 48.6251 300.301 47.5346ZM301.229 37.4028L301.278 41.3823H297.347C296.419 41.3823 295.613 41.4881 294.93 41.6997C294.246 41.9113 293.685 42.2124 293.245 42.603C292.806 42.9773 292.48 43.4168 292.269 43.9214C292.073 44.4259 291.976 44.9793 291.976 45.5815C291.976 46.1837 292.114 46.729 292.391 47.2173C292.668 47.6893 293.066 48.0636 293.587 48.3403C294.108 48.6007 294.718 48.7309 295.418 48.7309C296.476 48.7309 297.396 48.5193 298.177 48.0962C298.958 47.673 299.56 47.1522 299.984 46.5337C300.423 45.9152 300.651 45.3292 300.667 44.7758L302.523 47.7544C302.262 48.4217 301.904 49.1134 301.448 49.8296C301.009 50.5457 300.447 51.2212 299.764 51.8559C299.08 52.4744 298.258 52.9871 297.298 53.394C296.338 53.7846 295.198 53.9799 293.88 53.9799C292.204 53.9799 290.682 53.6463 289.315 52.979C287.964 52.2954 286.89 51.3595 286.092 50.1714C285.311 48.9669 284.92 47.5997 284.92 46.0698C284.92 44.6863 285.181 43.4575 285.701 42.3833C286.222 41.3091 286.987 40.4057 287.996 39.6733C289.022 38.9246 290.299 38.3631 291.829 37.9887C293.359 37.5981 295.133 37.4028 297.152 37.4028H301.229ZM327.083 46.1919C327.083 45.6873 326.937 45.2316 326.644 44.8247C326.351 44.4178 325.806 44.0434 325.008 43.7016C324.227 43.3436 323.096 43.018 321.614 42.7251C320.28 42.4321 319.035 42.0659 317.879 41.6264C316.74 41.1707 315.747 40.6255 314.901 39.9907C314.071 39.3559 313.419 38.6072 312.947 37.7446C312.475 36.8657 312.239 35.8647 312.239 34.7417C312.239 33.6349 312.475 32.5932 312.947 31.6167C313.436 30.6401 314.127 29.7775 315.023 29.0288C315.934 28.2638 317.041 27.6697 318.343 27.2466C319.661 26.8071 321.142 26.5874 322.786 26.5874C325.081 26.5874 327.051 26.9536 328.695 27.686C330.355 28.4184 331.624 29.4275 332.503 30.7133C333.398 31.9829 333.846 33.4314 333.846 35.0591H326.815C326.815 34.3755 326.668 33.7651 326.375 33.228C326.099 32.6746 325.659 32.2433 325.057 31.9341C324.471 31.6085 323.706 31.4458 322.762 31.4458C321.981 31.4458 321.305 31.5841 320.736 31.8608C320.166 32.1212 319.726 32.4793 319.417 32.935C319.124 33.3745 318.978 33.8628 318.978 34.3999C318.978 34.8068 319.059 35.173 319.222 35.4985C319.401 35.8077 319.686 36.0926 320.076 36.353C320.467 36.6134 320.972 36.8576 321.59 37.0854C322.225 37.297 323.006 37.4923 323.934 37.6714C325.838 38.062 327.539 38.5747 329.036 39.2094C330.534 39.8279 331.722 40.6743 332.601 41.7485C333.48 42.8064 333.919 44.198 333.919 45.9233C333.919 47.0952 333.659 48.1694 333.138 49.146C332.617 50.1225 331.868 50.977 330.892 51.7094C329.915 52.4256 328.743 52.9871 327.376 53.394C326.025 53.7846 324.503 53.9799 322.811 53.9799C320.353 53.9799 318.27 53.5405 316.561 52.6616C314.868 51.7827 313.582 50.6678 312.703 49.3169C311.841 47.9497 311.409 46.5499 311.409 45.1176H318.074C318.107 46.0779 318.351 46.851 318.807 47.437C319.279 48.0229 319.873 48.4461 320.589 48.7065C321.322 48.9669 322.111 49.0971 322.957 49.0971C323.869 49.0971 324.626 48.9751 325.228 48.7309C325.83 48.4705 326.286 48.1287 326.595 47.7055C326.92 47.2661 327.083 46.7615 327.083 46.1919ZM354.085 47.7299V15.9917H361.165V53.4917H354.793L354.085 47.7299ZM337.386 40.601V40.0883C337.386 38.0701 337.614 36.2391 338.07 34.5952C338.525 32.935 339.193 31.5109 340.072 30.3227C340.95 29.1346 342.033 28.215 343.319 27.5639C344.604 26.9129 346.069 26.5874 347.713 26.5874C349.259 26.5874 350.61 26.9129 351.766 27.5639C352.938 28.215 353.931 29.1427 354.744 30.3471C355.574 31.5353 356.242 32.9432 356.746 34.5708C357.251 36.1821 357.617 37.948 357.845 39.8686V40.9917C357.617 42.8309 357.251 44.5398 356.746 46.1186C356.242 47.6974 355.574 49.0809 354.744 50.269C353.931 51.4409 352.938 52.3523 351.766 53.0034C350.594 53.6544 349.227 53.9799 347.664 53.9799C346.02 53.9799 344.556 53.6463 343.27 52.979C342 52.3117 340.926 51.3758 340.047 50.1714C339.184 48.9669 338.525 47.5509 338.07 45.9233C337.614 44.2957 337.386 42.5216 337.386 40.601ZM344.417 40.0883V40.601C344.417 41.6915 344.499 42.7088 344.661 43.6528C344.84 44.5968 345.125 45.435 345.516 46.1674C345.923 46.8836 346.444 47.4451 347.078 47.852C347.729 48.2426 348.519 48.438 349.447 48.438C350.651 48.438 351.644 48.1694 352.425 47.6323C353.206 47.0789 353.8 46.3221 354.207 45.3618C354.63 44.4015 354.875 43.2947 354.94 42.0415V38.8432C354.891 37.8178 354.744 36.8982 354.5 36.0844C354.272 35.2544 353.931 34.5464 353.475 33.9604C353.035 33.3745 352.482 32.9188 351.815 32.5932C351.164 32.2677 350.391 32.1049 349.495 32.1049C348.584 32.1049 347.803 32.3165 347.152 32.7397C346.501 33.1466 345.972 33.7081 345.565 34.4243C345.174 35.1404 344.881 35.9868 344.686 36.9633C344.507 37.9236 344.417 38.9653 344.417 40.0883ZM380.916 47.5346V35.7671C380.916 34.9207 380.778 34.1964 380.501 33.5942C380.224 32.9757 379.793 32.4956 379.207 32.1538C378.638 31.812 377.897 31.6411 376.986 31.6411C376.204 31.6411 375.529 31.7794 374.959 32.0561C374.39 32.3165 373.95 32.699 373.641 33.2036C373.332 33.6919 373.177 34.2697 373.177 34.937H366.146C366.146 33.8139 366.406 32.7479 366.927 31.7387C367.448 30.7296 368.205 29.8426 369.197 29.0776C370.19 28.2964 371.37 27.686 372.738 27.2466C374.121 26.8071 375.667 26.5874 377.376 26.5874C379.427 26.5874 381.25 26.9292 382.845 27.6128C384.44 28.2964 385.693 29.3217 386.605 30.6889C387.532 32.0561 387.996 33.7651 387.996 35.8159V47.1196C387.996 48.5682 388.086 49.7563 388.265 50.6841C388.444 51.5955 388.704 52.393 389.046 53.0766V53.4917H381.942C381.6 52.7755 381.339 51.8803 381.16 50.8061C380.998 49.7156 380.916 48.6251 380.916 47.5346ZM381.844 37.4028L381.893 41.3823H377.962C377.034 41.3823 376.229 41.4881 375.545 41.6997C374.862 41.9113 374.3 42.2124 373.861 42.603C373.421 42.9773 373.096 43.4168 372.884 43.9214C372.689 44.4259 372.591 44.9793 372.591 45.5815C372.591 46.1837 372.729 46.729 373.006 47.2173C373.283 47.6893 373.682 48.0636 374.202 48.3403C374.723 48.6007 375.334 48.7309 376.033 48.7309C377.091 48.7309 378.011 48.5193 378.792 48.0962C379.573 47.673 380.176 47.1522 380.599 46.5337C381.038 45.9152 381.266 45.3292 381.282 44.7758L383.138 47.7544C382.877 48.4217 382.519 49.1134 382.064 49.8296C381.624 50.5457 381.063 51.2212 380.379 51.8559C379.696 52.4744 378.874 52.9871 377.913 53.394C376.953 53.7846 375.814 53.9799 374.495 53.9799C372.819 53.9799 371.297 53.6463 369.93 52.979C368.579 52.2954 367.505 51.3595 366.707 50.1714C365.926 48.9669 365.535 47.5997 365.535 46.0698C365.535 44.6863 365.796 43.4575 366.317 42.3833C366.837 41.3091 367.602 40.4057 368.612 39.6733C369.637 38.9246 370.915 38.3631 372.445 37.9887C373.974 37.5981 375.749 37.4028 377.767 37.4028H381.844ZM400.838 15.9917V53.4917H393.782V15.9917H400.838ZM418.807 53.9799C416.756 53.9799 414.917 53.6544 413.289 53.0034C411.662 52.3361 410.278 51.4165 409.139 50.2446C408.016 49.0727 407.153 47.7137 406.551 46.1674C405.949 44.6049 405.648 42.9448 405.648 41.187V40.2104C405.648 38.2085 405.933 36.3774 406.502 34.7173C407.072 33.0571 407.886 31.6167 408.944 30.396C410.018 29.1753 411.32 28.2394 412.85 27.5883C414.38 26.921 416.105 26.5874 418.026 26.5874C419.897 26.5874 421.558 26.8966 423.006 27.5151C424.455 28.1336 425.667 29.0125 426.644 30.1518C427.637 31.2911 428.385 32.6583 428.89 34.2534C429.394 35.8322 429.647 37.59 429.647 39.5268V42.4565H408.651V37.769H422.738V37.2319C422.738 36.2553 422.558 35.3846 422.2 34.6196C421.859 33.8383 421.338 33.2199 420.638 32.7641C419.938 32.3084 419.043 32.0805 417.952 32.0805C417.025 32.0805 416.227 32.284 415.56 32.6909C414.892 33.0978 414.347 33.6674 413.924 34.3999C413.517 35.1323 413.208 35.9949 412.996 36.9878C412.801 37.9643 412.703 39.0385 412.703 40.2104V41.187C412.703 42.2449 412.85 43.2215 413.143 44.1167C413.452 45.0119 413.883 45.785 414.437 46.436C415.006 47.087 415.69 47.5916 416.488 47.9497C417.301 48.3077 418.221 48.4868 419.246 48.4868C420.516 48.4868 421.696 48.2426 422.786 47.7544C423.893 47.2498 424.845 46.493 425.643 45.4839L429.061 49.1948C428.507 49.9923 427.751 50.7573 426.79 51.4897C425.846 52.2221 424.707 52.8244 423.372 53.2964C422.038 53.7521 420.516 53.9799 418.807 53.9799ZM465.047 44.1899C465.047 43.5551 464.949 42.9855 464.754 42.4809C464.575 41.9601 464.233 41.4881 463.729 41.0649C463.224 40.6255 462.516 40.1941 461.605 39.771C460.693 39.3478 459.513 38.9083 458.065 38.4526C456.453 37.9318 454.923 37.3458 453.475 36.6948C452.043 36.0438 450.773 35.2869 449.666 34.4243C448.576 33.5454 447.713 32.5281 447.078 31.3725C446.46 30.2169 446.151 28.8742 446.151 27.3442C446.151 25.8631 446.476 24.5203 447.127 23.3159C447.778 22.0952 448.69 21.0535 449.862 20.1909C451.033 19.312 452.417 18.6365 454.012 18.1645C455.623 17.6925 457.389 17.4565 459.31 17.4565C461.93 17.4565 464.217 17.9285 466.17 18.8725C468.123 19.8165 469.637 21.1105 470.711 22.7544C471.802 24.3982 472.347 26.2781 472.347 28.394H465.072C465.072 27.3523 464.852 26.4409 464.412 25.6596C463.989 24.8621 463.338 24.2355 462.459 23.7798C461.597 23.324 460.506 23.0962 459.188 23.0962C457.918 23.0962 456.86 23.2915 456.014 23.6821C455.168 24.0564 454.533 24.5691 454.11 25.2202C453.686 25.8549 453.475 26.5711 453.475 27.3686C453.475 27.9708 453.621 28.5161 453.914 29.0044C454.224 29.4926 454.679 29.9484 455.281 30.3716C455.884 30.7947 456.624 31.1935 457.503 31.5678C458.382 31.9422 459.399 32.3084 460.555 32.6665C462.492 33.2524 464.193 33.9116 465.657 34.644C467.139 35.3764 468.376 36.1984 469.368 37.1098C470.361 38.0213 471.11 39.0548 471.614 40.2104C472.119 41.366 472.371 42.6762 472.371 44.1411C472.371 45.6873 472.07 47.0708 471.468 48.2915C470.866 49.5122 469.995 50.5457 468.856 51.3921C467.716 52.2384 466.357 52.8813 464.779 53.3208C463.2 53.7602 461.434 53.9799 459.481 53.9799C457.723 53.9799 455.989 53.7521 454.28 53.2964C452.572 52.8244 451.017 52.1163 449.617 51.1723C448.234 50.2283 447.127 49.0239 446.297 47.5591C445.467 46.0942 445.052 44.3608 445.052 42.3589H452.401C452.401 43.4656 452.572 44.4015 452.913 45.1665C453.255 45.9314 453.735 46.5499 454.354 47.0219C454.988 47.4939 455.737 47.8357 456.6 48.0473C457.479 48.2589 458.439 48.3647 459.481 48.3647C460.75 48.3647 461.792 48.1857 462.606 47.8276C463.436 47.4695 464.046 46.9731 464.437 46.3383C464.844 45.7036 465.047 44.9874 465.047 44.1899ZM489.071 53.9799C487.02 53.9799 485.181 53.6544 483.553 53.0034C481.925 52.3361 480.542 51.4165 479.403 50.2446C478.28 49.0727 477.417 47.7137 476.815 46.1674C476.212 44.6049 475.911 42.9448 475.911 41.187V40.2104C475.911 38.2085 476.196 36.3774 476.766 34.7173C477.336 33.0571 478.149 31.6167 479.207 30.396C480.281 29.1753 481.584 28.2394 483.113 27.5883C484.643 26.921 486.369 26.5874 488.289 26.5874C490.161 26.5874 491.821 26.8966 493.27 27.5151C494.718 28.1336 495.931 29.0125 496.907 30.1518C497.9 31.2911 498.649 32.6583 499.154 34.2534C499.658 35.8322 499.91 37.59 499.91 39.5268V42.4565H478.914V37.769H493.001V37.2319C493.001 36.2553 492.822 35.3846 492.464 34.6196C492.122 33.8383 491.601 33.2199 490.902 32.7641C490.202 32.3084 489.307 32.0805 488.216 32.0805C487.288 32.0805 486.491 32.284 485.823 32.6909C485.156 33.0978 484.611 33.6674 484.188 34.3999C483.781 35.1323 483.472 35.9949 483.26 36.9878C483.065 37.9643 482.967 39.0385 482.967 40.2104V41.187C482.967 42.2449 483.113 43.2215 483.406 44.1167C483.716 45.0119 484.147 45.785 484.7 46.436C485.27 47.087 485.954 47.5916 486.751 47.9497C487.565 48.3077 488.485 48.4868 489.51 48.4868C490.78 48.4868 491.96 48.2426 493.05 47.7544C494.157 47.2498 495.109 46.493 495.906 45.4839L499.324 49.1948C498.771 49.9923 498.014 50.7573 497.054 51.4897C496.11 52.2221 494.971 52.8244 493.636 53.2964C492.301 53.7521 490.78 53.9799 489.071 53.9799ZM512.557 48.3647L518.416 27.0757H525.765L516.854 53.4917H512.41L512.557 48.3647ZM508.529 27.0757L514.412 48.3891L514.534 53.4917H510.067L501.155 27.0757H508.529ZM540.731 53.9799C538.68 53.9799 536.841 53.6544 535.213 53.0034C533.586 52.3361 532.202 51.4165 531.063 50.2446C529.94 49.0727 529.077 47.7137 528.475 46.1674C527.873 44.6049 527.572 42.9448 527.572 41.187V40.2104C527.572 38.2085 527.856 36.3774 528.426 34.7173C528.996 33.0571 529.809 31.6167 530.867 30.396C531.942 29.1753 533.244 28.2394 534.774 27.5883C536.304 26.921 538.029 26.5874 539.949 26.5874C541.821 26.5874 543.481 26.8966 544.93 27.5151C546.378 28.1336 547.591 29.0125 548.568 30.1518C549.56 31.2911 550.309 32.6583 550.814 34.2534C551.318 35.8322 551.571 37.59 551.571 39.5268V42.4565H530.574V37.769H544.661V37.2319C544.661 36.2553 544.482 35.3846 544.124 34.6196C543.782 33.8383 543.262 33.2199 542.562 32.7641C541.862 32.3084 540.967 32.0805 539.876 32.0805C538.948 32.0805 538.151 32.284 537.484 32.6909C536.816 33.0978 536.271 33.6674 535.848 34.3999C535.441 35.1323 535.132 35.9949 534.92 36.9878C534.725 37.9643 534.627 39.0385 534.627 40.2104V41.187C534.627 42.2449 534.774 43.2215 535.067 44.1167C535.376 45.0119 535.807 45.785 536.361 46.436C536.93 47.087 537.614 47.5916 538.411 47.9497C539.225 48.3077 540.145 48.4868 541.17 48.4868C542.44 48.4868 543.62 48.2426 544.71 47.7544C545.817 47.2498 546.769 46.493 547.567 45.4839L550.985 49.1948C550.431 49.9923 549.674 50.7573 548.714 51.4897C547.77 52.2221 546.631 52.8244 545.296 53.2964C543.961 53.7521 542.44 53.9799 540.731 53.9799ZM562.459 32.7153V53.4917H555.428V27.0757H562.02L562.459 32.7153ZM561.434 39.3559H559.53C559.53 37.4028 559.782 35.645 560.286 34.0825C560.791 32.5037 561.499 31.1609 562.41 30.0542C563.322 28.9311 564.404 28.0766 565.657 27.4907C566.927 26.8885 568.343 26.5874 569.905 26.5874C571.142 26.5874 572.274 26.7664 573.299 27.1245C574.324 27.4826 575.203 28.0522 575.936 28.8335C576.684 29.6147 577.254 30.6482 577.645 31.9341C578.052 33.2199 578.255 34.7905 578.255 36.646V53.4917H571.175V36.6216C571.175 35.4497 571.012 34.5382 570.687 33.8872C570.361 33.2361 569.881 32.7804 569.246 32.52C568.628 32.2433 567.863 32.1049 566.951 32.1049C566.007 32.1049 565.185 32.2921 564.486 32.6665C563.802 33.0408 563.232 33.5617 562.777 34.229C562.337 34.88 562.003 35.645 561.776 36.5239C561.548 37.4028 561.434 38.3468 561.434 39.3559ZM596.541 27.0757V32.0561H581.16V27.0757H596.541ZM584.969 20.5571H592V45.5327C592 46.2977 592.098 46.8836 592.293 47.2905C592.505 47.6974 592.814 47.9822 593.221 48.145C593.628 48.2915 594.141 48.3647 594.759 48.3647C595.198 48.3647 595.589 48.3484 595.931 48.3159C596.289 48.2671 596.59 48.2182 596.834 48.1694L596.859 53.3452C596.256 53.5405 595.605 53.6951 594.905 53.8091C594.206 53.923 593.433 53.9799 592.586 53.9799C591.04 53.9799 589.689 53.7277 588.533 53.2231C587.394 52.7023 586.515 51.8722 585.897 50.7329C585.278 49.5936 584.969 48.0962 584.969 46.2407V20.5571ZM607.405 15.9917V53.4917H600.374V15.9917H607.405ZM606.405 39.3559H604.476C604.492 37.5167 604.736 35.824 605.208 34.2778C605.68 32.7153 606.356 31.3644 607.235 30.2251C608.113 29.0695 609.163 28.1743 610.384 27.5395C611.621 26.9048 612.988 26.5874 614.486 26.5874C615.788 26.5874 616.968 26.7745 618.026 27.1489C619.1 27.507 620.019 28.0929 620.784 28.9067C621.566 29.7042 622.168 30.754 622.591 32.0561C623.014 33.3582 623.226 34.937 623.226 36.7924V53.4917H616.146V36.7436C616.146 35.5717 615.975 34.6522 615.633 33.9848C615.308 33.3012 614.827 32.8211 614.193 32.5444C613.574 32.2514 612.809 32.1049 611.898 32.1049C610.889 32.1049 610.026 32.2921 609.31 32.6665C608.61 33.0408 608.048 33.5617 607.625 34.229C607.202 34.88 606.893 35.645 606.697 36.5239C606.502 37.4028 606.405 38.3468 606.405 39.3559ZM642.44 35.4741V40.9917H628.646V35.4741H642.44ZM182.65 113.492H174.91L174.959 107.779H182.65C184.57 107.779 186.19 107.347 187.508 106.485C188.826 105.606 189.819 104.328 190.487 102.652C191.17 100.975 191.512 98.949 191.512 96.5727V94.8393C191.512 93.0164 191.317 91.4132 190.926 90.0298C190.552 88.6463 189.99 87.4826 189.241 86.5385C188.493 85.5945 187.573 84.8865 186.483 84.4145C185.392 83.9262 184.139 83.6821 182.723 83.6821H174.764V77.9448H182.723C185.099 77.9448 187.272 78.3517 189.241 79.1655C191.227 79.963 192.944 81.1105 194.393 82.6079C195.841 84.1053 196.956 85.8956 197.738 87.979C198.535 90.046 198.934 92.3491 198.934 94.8882V96.5727C198.934 99.0955 198.535 101.399 197.738 103.482C196.956 105.565 195.841 107.356 194.393 108.853C192.961 110.334 191.243 111.482 189.241 112.295C187.256 113.093 185.058 113.492 182.65 113.492ZM179.061 77.9448V113.492H171.737V77.9448H179.061ZM218.074 107.535V95.7671C218.074 94.9207 217.936 94.1964 217.659 93.5942C217.383 92.9757 216.951 92.4956 216.365 92.1538C215.796 91.812 215.055 91.6411 214.144 91.6411C213.363 91.6411 212.687 91.7794 212.117 92.0561C211.548 92.3165 211.108 92.699 210.799 93.2036C210.49 93.6919 210.335 94.2697 210.335 94.937H203.304C203.304 93.8139 203.564 92.7479 204.085 91.7387C204.606 90.7296 205.363 89.8426 206.356 89.0776C207.349 88.2964 208.529 87.686 209.896 87.2466C211.279 86.8071 212.825 86.5874 214.534 86.5874C216.585 86.5874 218.408 86.9292 220.003 87.6128C221.598 88.2964 222.851 89.3217 223.763 90.6889C224.691 92.0561 225.155 93.7651 225.155 95.8159V107.12C225.155 108.568 225.244 109.756 225.423 110.684C225.602 111.596 225.863 112.393 226.204 113.077V113.492H219.1C218.758 112.776 218.498 111.88 218.319 110.806C218.156 109.716 218.074 108.625 218.074 107.535ZM219.002 97.4028L219.051 101.382H215.12C214.193 101.382 213.387 101.488 212.703 101.7C212.02 101.911 211.458 102.212 211.019 102.603C210.579 102.977 210.254 103.417 210.042 103.921C209.847 104.426 209.749 104.979 209.749 105.582C209.749 106.184 209.888 106.729 210.164 107.217C210.441 107.689 210.84 108.064 211.361 108.34C211.881 108.601 212.492 108.731 213.192 108.731C214.25 108.731 215.169 108.519 215.95 108.096C216.732 107.673 217.334 107.152 217.757 106.534C218.197 105.915 218.424 105.329 218.441 104.776L220.296 107.754C220.036 108.422 219.678 109.113 219.222 109.83C218.782 110.546 218.221 111.221 217.537 111.856C216.854 112.474 216.032 112.987 215.072 113.394C214.111 113.785 212.972 113.98 211.654 113.98C209.977 113.98 208.455 113.646 207.088 112.979C205.737 112.295 204.663 111.36 203.865 110.171C203.084 108.967 202.694 107.6 202.694 106.07C202.694 104.686 202.954 103.457 203.475 102.383C203.996 101.309 204.761 100.406 205.77 99.6733C206.795 98.9246 208.073 98.3631 209.603 97.9887C211.133 97.5981 212.907 97.4028 214.925 97.4028H219.002ZM238.021 110.513L245.028 87.0757H252.572L241.951 117.471C241.724 118.138 241.414 118.855 241.024 119.62C240.649 120.385 240.137 121.109 239.486 121.792C238.851 122.492 238.045 123.062 237.069 123.501C236.108 123.941 234.928 124.161 233.529 124.161C232.861 124.161 232.316 124.12 231.893 124.039C231.47 123.957 230.965 123.843 230.379 123.697V118.545C230.558 118.545 230.745 118.545 230.941 118.545C231.136 118.562 231.323 118.57 231.502 118.57C232.43 118.57 233.187 118.464 233.773 118.252C234.359 118.041 234.831 117.715 235.189 117.276C235.547 116.853 235.832 116.299 236.043 115.616L238.021 110.513ZM235.091 87.0757L240.828 106.216L241.829 113.663L237.044 114.175L227.547 87.0757H235.091ZM282.723 84.0239L273.055 113.492H265.267L278.475 77.9448H283.431L282.723 84.0239ZM290.755 113.492L281.063 84.0239L280.281 77.9448H285.286L298.568 113.492H290.755ZM290.316 100.259V105.997H271.541V100.259H290.316ZM317.025 107.73V75.9917H324.105V113.492H317.733L317.025 107.73ZM300.325 100.601V100.088C300.325 98.0701 300.553 96.2391 301.009 94.5952C301.465 92.935 302.132 91.5109 303.011 90.3227C303.89 89.1346 304.972 88.215 306.258 87.5639C307.544 86.9129 309.009 86.5874 310.653 86.5874C312.199 86.5874 313.55 86.9129 314.705 87.5639C315.877 88.215 316.87 89.1427 317.684 90.3471C318.514 91.5353 319.181 92.9432 319.686 94.5708C320.19 96.1821 320.557 97.948 320.784 99.8686V100.992C320.557 102.831 320.19 104.54 319.686 106.119C319.181 107.697 318.514 109.081 317.684 110.269C316.87 111.441 315.877 112.352 314.705 113.003C313.533 113.654 312.166 113.98 310.604 113.98C308.96 113.98 307.495 113.646 306.209 112.979C304.94 112.312 303.865 111.376 302.987 110.171C302.124 108.967 301.465 107.551 301.009 105.923C300.553 104.296 300.325 102.522 300.325 100.601ZM307.357 100.088V100.601C307.357 101.692 307.438 102.709 307.601 103.653C307.78 104.597 308.065 105.435 308.455 106.167C308.862 106.884 309.383 107.445 310.018 107.852C310.669 108.243 311.458 108.438 312.386 108.438C313.59 108.438 314.583 108.169 315.364 107.632C316.146 107.079 316.74 106.322 317.147 105.362C317.57 104.401 317.814 103.295 317.879 102.041V98.8432C317.83 97.8178 317.684 96.8982 317.44 96.0844C317.212 95.2544 316.87 94.5464 316.414 93.9604C315.975 93.3745 315.421 92.9188 314.754 92.5932C314.103 92.2677 313.33 92.1049 312.435 92.1049C311.523 92.1049 310.742 92.3165 310.091 92.7397C309.44 93.1466 308.911 93.7081 308.504 94.4243C308.113 95.1404 307.821 95.9868 307.625 96.9633C307.446 97.9236 307.357 98.9653 307.357 100.088ZM338.582 108.365L344.442 87.0757H351.79L342.879 113.492H338.436L338.582 108.365ZM334.554 87.0757L340.438 108.389L340.56 113.492H336.092L327.181 87.0757H334.554ZM366.756 113.98C364.705 113.98 362.866 113.654 361.238 113.003C359.611 112.336 358.227 111.416 357.088 110.245C355.965 109.073 355.102 107.714 354.5 106.167C353.898 104.605 353.597 102.945 353.597 101.187V100.21C353.597 98.2085 353.882 96.3774 354.451 94.7173C355.021 93.0571 355.835 91.6167 356.893 90.396C357.967 89.1753 359.269 88.2394 360.799 87.5883C362.329 86.921 364.054 86.5874 365.975 86.5874C367.847 86.5874 369.507 86.8966 370.955 87.5151C372.404 88.1336 373.616 89.0125 374.593 90.1518C375.586 91.2911 376.335 92.6583 376.839 94.2534C377.344 95.8322 377.596 97.59 377.596 99.5268V102.457H356.6V97.769H370.687V97.2319C370.687 96.2553 370.508 95.3846 370.15 94.6196C369.808 93.8383 369.287 93.2199 368.587 92.7641C367.887 92.3084 366.992 92.0805 365.902 92.0805C364.974 92.0805 364.176 92.284 363.509 92.6909C362.842 93.0978 362.296 93.6674 361.873 94.3999C361.466 95.1323 361.157 95.9949 360.946 96.9878C360.75 97.9643 360.653 99.0385 360.653 100.21V101.187C360.653 102.245 360.799 103.221 361.092 104.117C361.401 105.012 361.833 105.785 362.386 106.436C362.956 107.087 363.639 107.592 364.437 107.95C365.251 108.308 366.17 108.487 367.196 108.487C368.465 108.487 369.645 108.243 370.736 107.754C371.842 107.25 372.794 106.493 373.592 105.484L377.01 109.195C376.457 109.992 375.7 110.757 374.739 111.49C373.795 112.222 372.656 112.824 371.322 113.296C369.987 113.752 368.465 113.98 366.756 113.98ZM388.485 92.7153V113.492H381.453V87.0757H388.045L388.485 92.7153ZM387.459 99.3559H385.555C385.555 97.4028 385.807 95.645 386.312 94.0825C386.816 92.5037 387.524 91.1609 388.436 90.0542C389.347 88.9311 390.43 88.0766 391.683 87.4907C392.952 86.8885 394.368 86.5874 395.931 86.5874C397.168 86.5874 398.299 86.7664 399.324 87.1245C400.35 87.4826 401.229 88.0522 401.961 88.8335C402.71 89.6147 403.28 90.6482 403.67 91.9341C404.077 93.2199 404.28 94.7905 404.28 96.646V113.492H397.2V96.6216C397.2 95.4497 397.038 94.5382 396.712 93.8872C396.387 93.2361 395.906 92.7804 395.272 92.52C394.653 92.2433 393.888 92.1049 392.977 92.1049C392.033 92.1049 391.211 92.2921 390.511 92.6665C389.827 93.0408 389.258 93.5617 388.802 94.229C388.363 94.88 388.029 95.645 387.801 96.5239C387.573 97.4028 387.459 98.3468 387.459 99.3559ZM422.567 87.0757V92.0561H407.186V87.0757H422.567ZM410.994 80.5571H418.026V105.533C418.026 106.298 418.123 106.884 418.319 107.29C418.53 107.697 418.839 107.982 419.246 108.145C419.653 108.291 420.166 108.365 420.784 108.365C421.224 108.365 421.614 108.348 421.956 108.316C422.314 108.267 422.615 108.218 422.86 108.169L422.884 113.345C422.282 113.54 421.631 113.695 420.931 113.809C420.231 113.923 419.458 113.98 418.612 113.98C417.065 113.98 415.714 113.728 414.559 113.223C413.419 112.702 412.541 111.872 411.922 110.733C411.304 109.594 410.994 108.096 410.994 106.241V80.5571ZM433.992 87.0757V113.492H426.937V87.0757H433.992ZM426.497 80.1909C426.497 79.1655 426.855 78.3191 427.572 77.6518C428.288 76.9845 429.248 76.6508 430.452 76.6508C431.641 76.6508 432.593 76.9845 433.309 77.6518C434.041 78.3191 434.407 79.1655 434.407 80.1909C434.407 81.2163 434.041 82.0626 433.309 82.7299C432.593 83.3973 431.641 83.7309 430.452 83.7309C429.248 83.7309 428.288 83.3973 427.572 82.7299C426.855 82.0626 426.497 81.2163 426.497 80.1909ZM460.848 95.0591H457.552C456.836 93.1873 456.095 91.5597 455.33 90.1762C454.582 88.7928 453.947 87.507 453.426 86.3188C452.905 85.1144 452.645 83.8855 452.645 82.6323C452.645 81.6395 452.864 80.7117 453.304 79.8491C453.743 78.9702 454.386 78.2052 455.233 77.5542C456.095 76.8869 457.153 76.3742 458.406 76.0161C459.676 75.6417 461.141 75.4546 462.801 75.4546C464.868 75.4546 466.61 75.715 468.026 76.2358C469.442 76.7566 470.573 77.4647 471.419 78.3598C472.282 79.255 472.9 80.2723 473.275 81.4116C473.665 82.5346 473.861 83.6984 473.861 84.9028H466.805C466.805 83.8611 466.61 83.0148 466.219 82.3637C465.828 81.6964 465.316 81.2163 464.681 80.9233C464.046 80.6141 463.354 80.4594 462.606 80.4594C461.222 80.4594 460.246 80.8501 459.676 81.6313C459.106 82.3963 458.822 83.2508 458.822 84.1948C458.822 85.1551 458.919 86.0421 459.114 86.8559C459.326 87.6697 459.562 88.4754 459.822 89.2729C460.099 90.0704 460.335 90.9331 460.53 91.8608C460.742 92.7885 460.848 93.8546 460.848 95.0591ZM478.377 87.0757V92.0561H463.045V87.0757H478.377ZM466.805 84.9028H473.861V105.313C473.861 106.094 473.958 106.713 474.154 107.168C474.349 107.608 474.65 107.917 475.057 108.096C475.464 108.275 475.976 108.365 476.595 108.365C477.034 108.365 477.425 108.348 477.767 108.316C478.109 108.267 478.41 108.218 478.67 108.169V113.345C478.084 113.54 477.441 113.695 476.741 113.809C476.042 113.923 475.26 113.98 474.398 113.98C472.851 113.98 471.509 113.687 470.369 113.101C469.23 112.515 468.351 111.596 467.733 110.342C467.114 109.073 466.805 107.404 466.805 105.337V84.9028ZM454.085 106.192C454.085 105.687 453.939 105.232 453.646 104.825C453.353 104.418 452.808 104.043 452.01 103.702C451.229 103.344 450.098 103.018 448.616 102.725C447.282 102.432 446.037 102.066 444.881 101.626C443.742 101.171 442.749 100.625 441.903 99.9907C441.072 99.3559 440.421 98.6072 439.949 97.7446C439.477 96.8657 439.241 95.8647 439.241 94.7417C439.241 93.6349 439.477 92.5932 439.949 91.6167C440.438 90.6401 441.129 89.7775 442.025 89.0288C442.936 88.2638 444.043 87.6697 445.345 87.2466C446.663 86.8071 448.144 86.5874 449.788 86.5874C452.083 86.5874 454.053 86.9536 455.697 87.686C457.357 88.4184 458.626 89.4275 459.505 90.7133C460.4 91.9829 460.848 93.4314 460.848 95.0591H453.817C453.817 94.3755 453.67 93.7651 453.377 93.228C453.1 92.6746 452.661 92.2433 452.059 91.9341C451.473 91.6085 450.708 91.4458 449.764 91.4458C448.983 91.4458 448.307 91.5841 447.738 91.8608C447.168 92.1212 446.728 92.4793 446.419 92.935C446.126 93.3745 445.98 93.8628 445.98 94.3999C445.98 94.8068 446.061 95.173 446.224 95.4985C446.403 95.8077 446.688 96.0926 447.078 96.353C447.469 96.6134 447.974 96.8576 448.592 97.0854C449.227 97.297 450.008 97.4923 450.936 97.6714C452.84 98.062 454.541 98.5747 456.038 99.2094C457.536 99.8279 458.724 100.674 459.603 101.749C460.482 102.806 460.921 104.198 460.921 105.923C460.921 107.095 460.661 108.169 460.14 109.146C459.619 110.123 458.87 110.977 457.894 111.709C456.917 112.426 455.745 112.987 454.378 113.394C453.027 113.785 451.505 113.98 449.813 113.98C447.355 113.98 445.272 113.54 443.563 112.662C441.87 111.783 440.584 110.668 439.705 109.317C438.843 107.95 438.411 106.55 438.411 105.118H445.076C445.109 106.078 445.353 106.851 445.809 107.437C446.281 108.023 446.875 108.446 447.591 108.707C448.323 108.967 449.113 109.097 449.959 109.097C450.871 109.097 451.627 108.975 452.23 108.731C452.832 108.471 453.288 108.129 453.597 107.706C453.922 107.266 454.085 106.762 454.085 106.192ZM515.828 101.7H523.128C522.982 104.092 522.322 106.216 521.151 108.072C519.995 109.927 518.376 111.376 516.292 112.417C514.225 113.459 511.735 113.98 508.822 113.98C506.543 113.98 504.5 113.589 502.694 112.808C500.887 112.011 499.341 110.871 498.055 109.39C496.785 107.909 495.817 106.119 495.15 104.019C494.482 101.919 494.149 99.5675 494.149 96.9633V94.4975C494.149 91.8934 494.49 89.5415 495.174 87.4419C495.874 85.326 496.867 83.5275 498.153 82.0464C499.455 80.5652 501.009 79.4259 502.816 78.6284C504.622 77.8309 506.641 77.4321 508.87 77.4321C511.833 77.4321 514.331 77.9692 516.365 79.0434C518.416 80.1176 520.003 81.5988 521.126 83.4868C522.266 85.3748 522.949 87.5232 523.177 89.9321H515.853C515.771 88.4998 515.487 87.2872 514.998 86.2944C514.51 85.2853 513.769 84.5285 512.777 84.0239C511.8 83.5031 510.498 83.2426 508.87 83.2426C507.65 83.2426 506.584 83.4705 505.672 83.9262C504.761 84.382 503.996 85.0737 503.377 86.0014C502.759 86.9292 502.295 88.101 501.986 89.5171C501.693 90.9168 501.546 92.5607 501.546 94.4487V96.9633C501.546 98.8025 501.684 100.422 501.961 101.822C502.238 103.205 502.661 104.377 503.231 105.337C503.817 106.281 504.565 106.998 505.477 107.486C506.405 107.958 507.519 108.194 508.822 108.194C510.351 108.194 511.613 107.95 512.606 107.461C513.599 106.973 514.355 106.249 514.876 105.289C515.413 104.328 515.731 103.132 515.828 101.7ZM534.359 75.9917V113.492H527.327V75.9917H534.359ZM533.358 99.3559H531.429C531.445 97.5167 531.689 95.824 532.161 94.2778C532.633 92.7153 533.309 91.3644 534.188 90.2251C535.067 89.0695 536.116 88.1743 537.337 87.5395C538.574 86.9048 539.941 86.5874 541.439 86.5874C542.741 86.5874 543.921 86.7745 544.979 87.1489C546.053 87.507 546.973 88.0929 547.738 88.9067C548.519 89.7042 549.121 90.754 549.544 92.0561C549.967 93.3582 550.179 94.937 550.179 96.7924V113.492H543.099V96.7436C543.099 95.5717 542.928 94.6522 542.586 93.9848C542.261 93.3012 541.78 92.8211 541.146 92.5444C540.527 92.2514 539.762 92.1049 538.851 92.1049C537.842 92.1049 536.979 92.2921 536.263 92.6665C535.563 93.0408 535.002 93.5617 534.578 94.229C534.155 94.88 533.846 95.645 533.651 96.5239C533.455 97.4028 533.358 98.3468 533.358 99.3559ZM571.151 107.168V87.0757H578.182V113.492H571.566L571.151 107.168ZM571.932 101.749L574.007 101.7C574.007 103.457 573.804 105.093 573.397 106.607C572.99 108.104 572.379 109.406 571.566 110.513C570.752 111.604 569.726 112.458 568.489 113.077C567.252 113.679 565.796 113.98 564.119 113.98C562.834 113.98 561.645 113.801 560.555 113.443C559.481 113.068 558.553 112.491 557.772 111.709C557.007 110.912 556.405 109.895 555.965 108.658C555.542 107.404 555.33 105.899 555.33 104.141V87.0757H562.362V104.19C562.362 104.971 562.451 105.63 562.63 106.167C562.825 106.705 563.094 107.144 563.436 107.486C563.778 107.828 564.176 108.072 564.632 108.218C565.104 108.365 565.625 108.438 566.195 108.438C567.643 108.438 568.782 108.145 569.613 107.559C570.459 106.973 571.053 106.176 571.395 105.166C571.753 104.141 571.932 103.002 571.932 101.749ZM590.584 92.8374V113.492H583.553V87.0757H590.169L590.584 92.8374ZM598.543 86.9048L598.421 93.4233C598.079 93.3745 597.664 93.3338 597.176 93.3012C596.704 93.2524 596.273 93.228 595.882 93.228C594.889 93.228 594.027 93.3582 593.294 93.6186C592.578 93.8628 591.976 94.229 591.488 94.7173C591.016 95.2055 590.657 95.7996 590.413 96.4995C590.185 97.1994 590.055 97.9969 590.023 98.8921L588.607 98.4526C588.607 96.7436 588.778 95.173 589.119 93.7407C589.461 92.2921 589.958 91.0307 590.609 89.9565C591.276 88.8823 592.09 88.0522 593.05 87.4663C594.01 86.8803 595.109 86.5874 596.346 86.5874C596.737 86.5874 597.135 86.6199 597.542 86.685C597.949 86.7339 598.283 86.8071 598.543 86.9048ZM612.288 108.487C613.151 108.487 613.916 108.324 614.583 107.999C615.251 107.657 615.771 107.185 616.146 106.582C616.536 105.964 616.74 105.24 616.756 104.41H623.372C623.356 106.265 622.86 107.917 621.883 109.366C620.906 110.798 619.596 111.929 617.952 112.759C616.308 113.573 614.469 113.98 612.435 113.98C610.384 113.98 608.594 113.638 607.064 112.955C605.55 112.271 604.289 111.327 603.28 110.123C602.27 108.902 601.514 107.486 601.009 105.874C600.504 104.247 600.252 102.505 600.252 100.65V99.9419C600.252 98.0701 600.504 96.3286 601.009 94.7173C601.514 93.0897 602.27 91.6736 603.28 90.4692C604.289 89.2485 605.55 88.2964 607.064 87.6128C608.577 86.9292 610.351 86.5874 612.386 86.5874C614.551 86.5874 616.447 87.0024 618.074 87.8325C619.718 88.6626 621.004 89.8507 621.932 91.3969C622.876 92.9269 623.356 94.7417 623.372 96.8413H616.756C616.74 95.9624 616.553 95.1648 616.195 94.4487C615.853 93.7326 615.348 93.1629 614.681 92.7397C614.03 92.3003 613.224 92.0805 612.264 92.0805C611.238 92.0805 610.4 92.3003 609.749 92.7397C609.098 93.1629 608.594 93.7488 608.236 94.4975C607.877 95.2299 607.625 96.0682 607.479 97.0122C607.349 97.9399 607.283 98.9165 607.283 99.9419V100.65C607.283 101.675 607.349 102.66 607.479 103.604C607.609 104.548 607.853 105.386 608.211 106.119C608.586 106.851 609.098 107.429 609.749 107.852C610.4 108.275 611.247 108.487 612.288 108.487ZM634.31 75.9917V113.492H627.279V75.9917H634.31ZM633.309 99.3559H631.38C631.396 97.5167 631.641 95.824 632.113 94.2778C632.585 92.7153 633.26 91.3644 634.139 90.2251C635.018 89.0695 636.068 88.1743 637.288 87.5395C638.525 86.9048 639.892 86.5874 641.39 86.5874C642.692 86.5874 643.872 86.7745 644.93 87.1489C646.004 87.507 646.924 88.0929 647.689 88.9067C648.47 89.7042 649.072 90.754 649.495 92.0561C649.919 93.3582 650.13 94.937 650.13 96.7924V113.492H643.05V96.7436C643.05 95.5717 642.879 94.6522 642.537 93.9848C642.212 93.3012 641.732 92.8211 641.097 92.5444C640.478 92.2514 639.713 92.1049 638.802 92.1049C637.793 92.1049 636.93 92.2921 636.214 92.6665C635.514 93.0408 634.953 93.5617 634.53 94.229C634.106 94.88 633.797 95.645 633.602 96.5239C633.406 97.4028 633.309 98.3468 633.309 99.3559Z" fill="#2E6DE7"/>
</svg>
